# xmcd
#
# Track frame offsets: 
#        150
#        14596
#        28042
#        52976
#        79445
#        104585
#        117930
#        142446
#        158087
#        173636
#        189682
#        204749
#
# Disc length: 2945 seconds
#
# Revision: 1
# Processed by: cddbd v1.5.2PL0 Copyright (c) Steve Scherf et al.
# Submitted via: ExactAudioCopy v0.99pb3
#
DISCID=af0b7f0c
DTITLE=Nina Simone - Live at Town Hall
DYEAR=2010
DGENRE=Blues
TTITLE0=Exactly Like You
TTITLE1=The Other Woman
TTITLE2=Under The Lowest
TTITLE3=You Can Have Him
TTITLE4=Summertime
TTITLE5=Cotton Eyed Joe
TTITLE6=Return Home
TTITLE7=Wild Is The Wind
TTITLE8=Fine And Mellow
TTITLE9=Black Is The Colour
TTITLE10=Love Me Or Leave Me
TTITLE11=My Baby Just Cares For Me
EXTD=
EXTT0=
EXTT1=
EXTT2=
EXTT3=
EXTT4=
EXTT5=
EXTT6=
EXTT7=
EXTT8=
EXTT9=
EXTT10=
EXTT11=
PLAYORDER=
